# AST/ASF file generated using VICON BodyLanguage
# -----------------------------------------------
:version 1.10
:name VICON
:units
  mass 1.0
  length 0.1
  angle deg
:documentation
   .ast/.asf automatically generated from VICON data using
   VICON BodyBuilder and BodyLanguage model FULLBODY5.MOD
:root
   order TX TY TZ RZ RY RX
   axis XYZ
   position 0 0 0  
   orientation 0 -0 0 
:bonedata
  begin
     id 1 
     name lhipjoint
     direction 0.961525 -0.229516 0.150972 
     length 0.502153 
     axis 0 -0 0  XYZ
  end
  begin
     id 2 
     name lfemur
     direction 0.173648 -0.984808 0  
     length 1.83052  
     axis 0 -0 10  XYZ
    dof rx ry rz
    limits (-180.0 180.0)
           (-180.0 180.0)
           (-180.0 180.0)
  end
  begin
     id 3 
     name ltibia
     direction 0.173629 -0.984811 0   
     length 1.50296   
     axis 0 -0 10   XYZ
    dof rx ry rz
    limits (-180.0 180.0)
           (-180.0 180.0)
           (-180.0 180.0)
  end
  begin
     id 4 
     name lfoot
     direction 7.59329e-012 -0.227408 0.9738   
     length 0.574743   
     axis -90 -1.73656e-015 10   XYZ
    dof rx ry rz
    limits (-180.0 180.0)
           (-180.0 180.0)
           (-180.0 180.0)
  end
  begin
     id 5 
     name ltoes
     direction 7.79885e-012 -4.41741e-011 1   
     length 0.28489   
     axis -90 -1.73656e-015 10   XYZ
    dof rx ry rz
    limits (-180.0 180.0)
           (-180.0 180.0)
           (-180.0 180.0)
  end
  begin
     id 6 
     name rhipjoint
     direction -0.970498 -0.201437 0.132502   
     length 0.572149  
     axis 0 -0 0  XYZ 
  end
  begin
     id 7 
     name rfemur
     direction -0.173648 -0.984808 0   
     length 1.71866   
     axis 0 -0 -10   XYZ
    dof rx ry rz
    limits (-180.0 180.0)
           (-180.0 180.0)
           (-180.0 180.0)
  end
  begin
     id 8 
     name rtibia
     direction -0.173624 -0.984812 0   
     length 1.42623   
     axis 0 -0 -10   XYZ
    dof rx ry rz
    limits (-180.0 180.0)
           (-180.0 180.0)
           (-180.0 180.0)
 end
 begin
     id 9 
     name rfoot
     direction -7.12931e-012 -0.404275 0.914637   
     length 0.524692  
     axis -90 1.73656e-015 -10   XYZ
    dof rx ry rz
    limits (-180.0 180.0)
           (-180.0 180.0)
           (-180.0 180.0)
  end
  begin
     id 10 
     name rtoes
     direction -7.79289e-012 -4.41454e-011 1   
     length 0.254983   
     axis -90 1.73656e-015 -10   XYZ
    dof rx ry rz
    limits (-180.0 180.0)
           (-180.0 180.0)
           (-180.0 180.0)
  end
  begin
     id 11 
     name lowerback
     direction -0.0214086 0.993738 0.109665   
     length 0.417614   
     axis 0 -0 0   XYZ
    dof rx ry rz
    limits (-180.0 180.0)
           (-180.0 180.0)
           (-180.0 180.0)
  end
  begin
     id 12 
     name upperback
     direction 8.15962e-005 0.99996 0.00893412   
     length 0.419234   
     axis 0 -0 0   XYZ
    dof rx ry rz
    limits (-180.0 180.0)
           (-180.0 180.0)
           (-180.0 180.0)
  end
  begin
     id 13 
     name thorax
     direction 0.00826031 0.999067 -0.0423848   
     length 0.424697   
     axis 0 -0 0   XYZ
    dof rx ry rz
    limits (-180.0 180.0)
           (-180.0 180.0)
           (-180.0 180.0)
  end
  begin
     id 14 
     name lowerneck
     direction -0.0196262 0.994272 -0.105058   
     length 0.355877   
     axis 0 -0 0   XYZ
    dof rx ry rz
    limits (-180.0 180.0)
           (-180.0 180.0)
           (-180.0 180.0)
  end
  begin
     id 15 
     name upperneck
     direction 0.000117372 0.999091 0.0426261   
     length 0.351054   
     axis 0 -0 0   XYZ
    dof rx ry rz
    limits (-180.0 180.0)
           (-180.0 180.0)
           (-180.0 180.0)
  end
  begin
     id 16
     name head
     direction 0.00157618 0.999651 0.0263619  
     length 0.374844  
     axis 0 -0 0   XYZ
    dof rx ry rz
    limits (-180.0 180.0)
           (-180.0 180.0)
           (-180.0 180.0)
  end
  begin
     id 17 
     name lshoulderjoint
     direction 0.981627 -0.190809 0  
     length 0.701763  
     axis 0 -0 -11   XYZ
    dof rx ry rz
    limits (-180.0 180.0)
           (-180.0 180.0)
           (-180.0 180.0)
  end
  begin
     id 18 
     name lhumerus
     direction 0.48481 -0.87462 -1.80676e-026   
     length 0.994704   
     axis -180 5.14477e-009 -151   XYZ
    dof rx ry rz
    limits (-180.0 180.0)
           (-180.0 180.0)
           (-180.0 180.0)
  end
  begin
     id 19
     name lradius
     direction 0.48481 -0.87462 -3.2569e-026   
     length 0.617638   
     axis -180 5.14477e-009 -151   XYZ
    dof rx ry rz
    limits (-180.0 180.0)
           (-180.0 180.0)
           (-180.0 180.0)
  end
  begin
     id 20
     name lwrist
     direction 0.48481 -0.87462 -6.73202e-026   
     length 0.308819   
     axis -180 5.14477e-009 -151   XYZ
    dof rx ry rz
    limits (-180.0 180.0)
           (-180.0 180.0)
           (-180.0 180.0)
  end
  begin
     id 21 
     name lhand
     direction 0.478366 -0.863761 -0.158376   
     length 0.291656   
     axis -180 5.14477e-009 -151   XYZ
    dof rx ry rz
    limits (-180.0 180.0)
           (-180.0 180.0)
           (-180.0 180.0)
  end
  begin
     id 22 
     name rshoulderjoint
     direction -0.981627 -0.190809 0   
     length 0.66654  
     axis 0 -0 11   XYZ 
    dof rx ry rz
    limits (-180.0 180.0)
           (-180.0 180.0)
           (-180.0 180.0)
  end
  begin
     id 23 
     name rhumerus
     direction -0.48481 -0.87462 1.77576e-026  
     length 1.15089   
     axis 180 5.14477e-009 151   XYZ
    dof rx ry rz
    limits (-180.0 180.0)
           (-180.0 180.0)
           (-180.0 180.0)
  end
  begin
     id 24 
     name rradius
     direction -0.48481 -0.87462 3.79421e-026   
     length 0.613887   
     axis 180 5.14477e-009 151   XYZ
    dof rx ry rz
    limits (-180.0 180.0)
           (-180.0 180.0)
           (-180.0 180.0)
  end
  begin
     id 25 
     name rwrist
     direction -0.48481 -0.87462 5.43623e-026   
     length 0.306944   
     axis 180 5.14477e-009 151   XYZ
    dof rx ry rz
    limits (-180.0 180.0)
           (-180.0 180.0)
           (-180.0 180.0)
  end
  begin
     id 26
     name rhand
     direction -0.479273 -0.864638 -0.150661   
     length 0.306429   
     axis 180 5.14477e-009 151   XYZ
    dof rx ry rz
    limits (-180.0 180.0)
           (-180.0 180.0)
           (-180.0 180.0)
  end
:hierarchy
  begin
    root lhipjoint rhipjoint lowerback 
    lhipjoint lfemur
    lfemur ltibia
    ltibia lfoot
    lfoot ltoes
    rhipjoint rfemur
    rfemur rtibia
    rtibia rfoot
    rfoot rtoes
    lowerback upperback
    upperback thorax
    thorax lowerneck lshoulderjoint rshoulderjoint
    lowerneck upperneck
    upperneck head
    lshoulderjoint lhumerus
    lhumerus lradius
    lradius lwrist
    lwrist lhand
    rshoulderjoint rhumerus
    rhumerus rradius
    rradius rwrist
    rwrist rhand
  end

:FULLY-SPECIFIED
:DEGREES
1373
root -9.6227 3.64179 -0.331427 -99.4276 73.4871 104.249
lowerback -9.27667 0.182514 -2.84741
upperback -1.95731 0.664743 -1.83719
thorax 3.15958 0.346469 -0.220915
lowerneck 12.9965 -0.906261 -3.49043
upperneck -4.57583 -1.73755 0.305883
head -3.79869 -0.790336 0.855124
rshoulderjoint 1.49781 -3.83503 -32.3526
rhumerus -3.46118 -14.8186 -56.1412
rradius 35.986 6.99722e-014 -9.46215e-014
rwrist 2.88201e-013 6.67002 -2.68987e-013
rhand 7.36025 -5.72519 31.019
lshoulderjoint 2.81562 11.0239 25.4238
lhumerus -3.1787 14.9557 50.8241
lradius 23.8241 -1.59028e-013 -1.32987e-013
lwrist 3.16428e-013 -8.08248 -6.26431e-014
lhand 22.4203 8.17502 -14.9111
rfemur -2.12466 -2.60362 14.1949
rtibia 4.45278e-014 2.0276e-014 -6.36111e-015
rfoot -14.0342 15.0597 -13.3888
rtoes 1.145e-013 -1.48492e-013 9.85972e-014
lfemur -39.7169 -12.1917 -13.3664
ltibia 20.1553 7.95139e-015 1.03368e-014
lfoot -11.8254 1.11319 12.1848
ltoes 3.18055e-015 -2.70347e-014 -2.14687e-014
1374
root -9.60078 3.63627 -0.333372 -99.4366 73.4671 104.185
lowerback -9.369 0.288084 -2.68835
upperback -1.93843 0.794658 -1.85832
thorax 3.23074 0.411466 -0.316008
lowerneck 13.032 -0.985051 -3.42829
upperneck -4.66109 -1.8325 0.343347
head -3.8341 -0.839636 0.864778
rshoulderjoint 1.51485 -3.89019 -32.2955
rhumerus -3.35649 -14.9712 -56.0884
rradius 36.0352 -3.86437e-013 6.59965e-014
rwrist 1.38997e-012 6.74154 3.95533e-013
rhand 7.34181 -5.77337 31.0158
lshoulderjoint 2.81757 10.9808 25.4871
lhumerus -3.36671 15.4399 50.8349
lradius 23.6637 5.82042e-013 8.96519e-014
lwrist 9.87277e-013 -7.85211 -1.78192e-013
lhand 22.3048 7.93674 -14.6433
rfemur -1.75396 -2.61698 14.2527
rtibia 6.36111e-014 -2.78299e-015 3.18055e-015
rfoot -14.2555 14.9435 -13.3821
rtoes 3.81667e-014 8.97513e-014 -1.09729e-013
lfemur -39.8281 -12.3778 -13.2173
ltibia 19.129 -1.59028e-014 -1.90833e-014
lfoot -12.0582 1.0282 12.3423
ltoes 7.31528e-014 4.35338e-014 3.97569e-014
1375
root -9.57816 3.63035 -0.335255 -99.4019 73.4659 104.097
lowerback -9.4608 0.358663 -2.59666
upperback -1.87848 0.88163 -1.82352
thorax 3.34353 0.453017 -0.320025
lowerneck 12.9612 -1.0227 -3.53104
upperneck -4.74455 -1.89324 0.417075
head -3.84732 -0.870706 0.912454
rshoulderjoint 1.52414 -3.9165 -32.2836
rhumerus -3.16238 -15.0016 -56.0023
rradius 36.0967 3.54632e-013 3.49861e-014
rwrist -7.55737e-013 6.67731 -2.73795e-013
rhand 7.32528 -5.73856 31.0611
lshoulderjoint 2.8184 11.0703 25.3803
lhumerus -3.69014 15.8762 50.6455
lradius 23.4798 -6.17028e-013 5.66536e-014
lwrist -3.3773e-013 -7.61272 5.42293e-013
lhand 22.3644 7.96991 -14.155
rfemur -1.35994 -2.62235 14.2866
rtibia 6.36111e-015 5.76476e-015 6.36111e-015
rfoot -14.54 14.8497 -13.4115
rtoes -1.19271e-014 -9.73051e-014 1.47896e-013
lfemur -39.9493 -12.5551 -13.0958
ltibia 18.2765 2.22639e-014 1.43125e-014
lfoot -12.1944 1.01052 12.5512
ltoes -2.60805e-013 -3.97569e-016 7.15625e-015
1376
root -9.55499 3.62425 -0.337354 -99.3163 73.4613 103.967
lowerback -9.55877 0.442356 -2.51991
upperback -1.83946 0.988404 -1.80445
thorax 3.43799 0.505086 -0.329233
lowerneck 12.9212 -1.07348 -3.55107
upperneck -4.81469 -1.96124 0.456084
head -3.86238 -0.90537 0.934358
rshoulderjoint 1.52569 -3.92375 -32.2675
rhumerus -3.02303 -15.1237 -55.9179
rradius 36.1614 2.16278e-013 8.42847e-014
rwrist -1.10479e-012 6.6786 1.76126e-014
rhand 7.2978 -5.7356 31.0981
lshoulderjoint 2.8087 11.0467 25.3617
lhumerus -3.95163 17.173 50.6698
lradius 23.2937 -3.37139e-013 4.67144e-015
lwrist -6.7147e-013 -7.09642 1.95512e-013
lhand 22.6552 7.10749 -13.476
rfemur -0.965928 -2.61652 14.3079
rtibia -1.90833e-014 1.19271e-015 9.54166e-015
rfoot -14.8677 14.8585 -13.5594
rtoes -1.01778e-013 2.94201e-014 6.04305e-014
lfemur -40.1079 -12.7291 -12.9964
ltibia 17.6212 1.27222e-014 -1.59028e-015
lfoot -12.2574 0.854063 12.8442
ltoes -2.95792e-013 6.81831e-014 5.80451e-014
